<?xml version="1.0" standalone="no"?>
<!DOCTYPE svg PUBLIC "-//W3C//DTD SVG 20010904//EN"
 "http://www.w3.org/TR/2001/REC-SVG-20010904/DTD/svg10.dtd">
<svg version="1.0" xmlns="http://www.w3.org/2000/svg"
 width="804.000000pt" height="694.000000pt" viewBox="0 0 804.000000 694.000000"
 preserveAspectRatio="xMidYMid meet">

<g transform="translate(0.000000,694.000000) scale(0.100000,-0.100000)"
fill="#000000" stroke="none">
<path d="M3820 6154 c-19 -2 -78 -9 -130 -15 -1033 -118 -1940 -853 -2270
-1839 -80 -239 -119 -467 -127 -740 -10 -360 35 -652 152 -975 131 -363 342
-694 624 -976 433 -433 960 -692 1596 -785 181 -27 551 -25 745 5 305 46 558
124 825 255 370 182 709 453 946 758 346 445 535 937 569 1480 58 952 -402
1846 -1230 2391 -328 215 -694 355 -1095 418 -124 19 -510 34 -605 23z m534
-90 c230 -28 453 -86 660 -171 796 -324 1392 -1001 1590 -1803 47 -192 65
-321 73 -520 23 -615 -179 -1214 -574 -1705 -97 -121 -306 -327 -423 -416
-372 -287 -767 -460 -1235 -541 -113 -19 -166 -22 -410 -23 -343 0 -480 17
-760 96 -336 95 -706 291 -975 517 -119 99 -304 290 -391 402 -287 369 -456
770 -526 1245 -24 167 -24 494 1 670 96 685 456 1295 1017 1721 560 425 1256
613 1953 528z"/>
<path d="M3665 6001 c-31 -5 -36 -8 -22 -14 11 -4 23 -5 28 -1 5 3 9 1 9 -4 0
-10 -23 -22 -41 -22 -6 0 -8 4 -4 9 8 13 -29 23 -59 15 -20 -5 -23 -9 -13 -19
14 -15 30 -9 21 8 -4 7 -1 7 7 -1 12 -11 11 -16 -6 -28 -19 -15 -19 -15 5 -10
14 2 39 8 55 12 17 4 38 6 48 5 9 -1 17 4 17 13 0 8 6 17 13 20 6 3 1 3 -13 0
-24 -5 -24 -4 -6 10 11 9 16 15 10 15 -5 -1 -27 -5 -49 -8z"/>
<path d="M4315 6000 c3 -5 8 -10 11 -10 2 0 4 5 4 10 0 6 -5 10 -11 10 -5 0
-7 -4 -4 -10z"/>
<path d="M4445 5980 c3 -5 -4 -10 -17 -11 -23 -1 -23 -1 2 -10 17 -6 6 -7 -34
-3 -33 3 -66 8 -75 12 -9 3 -12 1 -8 -4 9 -10 168 -34 180 -27 14 8 7 22 -15
26 -21 5 -21 5 2 5 46 0 55 4 25 12 -44 11 -67 11 -60 0z"/>
<path d="M3478 5963 c7 -3 16 -2 19 1 4 3 -2 6 -13 5 -11 0 -14 -3 -6 -6z"/>
<path d="M4248 5963 c7 -3 16 -2 19 1 4 3 -2 6 -13 5 -11 0 -14 -3 -6 -6z"/>
<path d="M4548 5963 c7 -3 16 -2 19 1 4 3 -2 6 -13 5 -11 0 -14 -3 -6 -6z"/>
<path d="M3518 5953 c7 -3 16 -2 19 1 4 3 -2 6 -13 5 -11 0 -14 -3 -6 -6z"/>
<path d="M3490 5942 c0 -16 30 -23 48 -11 15 9 15 10 -2 5 -10 -4 -25 -1 -32
5 -9 7 -14 8 -14 1z"/>
<path d="M3030 5810 c0 -5 7 -7 15 -4 8 4 15 8 15 10 0 2 -7 4 -15 4 -8 0 -15
-4 -15 -10z"/>
<path d="M5037 5804 c3 -8 -1 -14 -11 -14 -9 0 -16 -4 -16 -10 0 -5 7 -6 17
-3 11 5 14 3 8 -6 -6 -10 -3 -11 14 -2 22 12 41 7 41 -10 0 -5 -5 -9 -11 -9
-5 0 -7 4 -4 10 3 6 -1 7 -10 3 -23 -8 1 -23 38 -23 19 0 26 -4 22 -12 -4 -7
3 -2 14 12 l20 25 -4 -23 c-3 -20 -2 -22 10 -12 8 7 15 16 15 20 0 15 -33 20
-48 8 -13 -11 -15 -10 -9 4 4 13 2 15 -10 11 -10 -4 -14 -2 -10 4 9 15 -16 23
-34 12 -22 -14 -36 -10 -16 5 17 13 16 14 -2 19 -14 3 -18 1 -14 -9z"/>
<path d="M2960 5800 c-8 -5 -10 -10 -5 -10 6 0 17 5 25 10 8 5 11 10 5 10 -5
0 -17 -5 -25 -10z"/>
<path d="M3055 5790 c3 -5 8 -10 11 -10 2 0 4 5 4 10 0 6 -5 10 -11 10 -5 0
-7 -4 -4 -10z"/>
<path d="M3850 5787 c-79 -26 -123 -87 -123 -170 0 -120 101 -203 214 -178 57
13 90 38 117 91 27 53 28 111 3 165 -22 49 -48 73 -98 91 -46 16 -67 16 -113
1z m117 -79 c51 -47 54 -140 6 -184 -28 -26 -88 -33 -124 -14 -28 16 -49 63
-49 113 0 98 99 149 167 85z"/>
<path d="M2980 5780 c-9 -6 -10 -10 -3 -10 6 0 15 5 18 10 8 12 4 12 -15 0z"/>
<path d="M2965 5750 c-3 -6 1 -7 9 -4 18 7 21 14 7 14 -6 0 -13 -4 -16 -10z"/>
<path d="M3323 5688 c-114 -37 -123 -42 -123 -65 0 -25 2 -25 44 -20 24 4 50
8 57 9 8 2 28 -42 55 -126 24 -70 45 -130 48 -133 12 -12 56 8 56 25 0 10 -18
72 -40 137 -22 65 -37 122 -32 126 4 4 24 12 45 19 43 13 56 33 37 55 -15 18
0 21 -147 -27z"/>
<path d="M4717 5663 c-8 -16 -33 -85 -57 -155 -35 -105 -41 -130 -30 -143 26
-31 46 -17 69 45 12 33 27 60 34 60 7 0 33 -7 58 -16 95 -35 109 16 15 53 -32
12 -60 24 -62 26 -2 2 3 22 12 44 l16 41 71 -24 c62 -21 73 -22 85 -10 8 8 12
21 9 28 -4 12 -175 79 -199 78 -4 0 -14 -12 -21 -27z"/>
<path d="M5345 5630 c-3 -6 1 -7 9 -4 18 7 21 14 7 14 -6 0 -13 -4 -16 -10z"/>
<path d="M5383 5608 c-17 -19 -17 -20 2 -31 20 -11 26 -13 46 -16 5 0 7 -7 3
-13 -4 -7 3 -4 17 7 13 11 25 20 26 21 2 0 -15 12 -36 26 -39 26 -40 26 -58 6z
m71 -39 c-2 -5 -11 -6 -19 -3 -8 4 -12 10 -9 15 3 5 -2 9 -11 9 -9 0 -13 -4
-10 -10 10 -16 -1 -12 -15 6 -11 12 -11 15 1 12 8 -2 13 3 11 10 -1 8 10 4 27
-9 17 -12 28 -26 25 -30z"/>
<path d="M5350 5610 c-9 -6 -10 -10 -3 -10 6 0 15 5 18 10 8 12 4 12 -15 0z"/>
<path d="M2496 5528 c-9 -12 -16 -19 -16 -14 0 5 -7 3 -15 -4 -11 -9 -12 -16
-5 -25 13 -15 3 -25 -18 -18 -18 7 -17 5 11 -17 16 -11 18 -11 15 1 -2 8 4 13
13 11 9 -1 22 6 30 15 11 15 11 16 -1 6 -20 -18 -35 -16 -19 3 7 8 20 13 30
11 13 -3 16 0 12 11 -4 9 -2 13 4 9 5 -3 10 0 10 8 0 11 -4 12 -14 4 -12 -11
-17 -5 -14 14 2 13 -8 7 -23 -15z m-1 -28 c-17 -19 -41 -18 -29 1 3 5 10 7 15
4 5 -4 12 1 15 10 4 9 9 13 12 10 3 -2 -3 -14 -13 -25z"/>
<path d="M2917 5522 c-16 -17 -14 -24 37 -110 30 -51 53 -92 52 -92 -2 0 -63
23 -136 51 -121 46 -134 49 -149 35 -14 -15 -12 -23 24 -88 111 -208 140 -241
168 -197 7 12 -2 36 -38 98 -26 45 -45 84 -43 87 3 2 61 -16 130 -41 125 -45
158 -48 158 -16 0 20 -161 283 -176 288 -6 2 -18 -5 -27 -15z"/>
<path d="M5128 5512 c-8 -9 -46 -76 -83 -149 -57 -111 -66 -135 -55 -148 30
-36 47 -18 125 130 42 80 73 150 70 155 -15 24 -42 29 -57 12z"/>
<path d="M5404 5362 c-16 -11 -204 -243 -204 -252 0 -13 31 -41 41 -38 5 2 38
38 73 81 l65 78 3 -148 c3 -141 4 -148 24 -151 14 -2 33 13 65 55 25 32 72 91
103 131 47 60 56 75 46 87 -24 29 -48 15 -109 -61 l-61 -77 0 135 c0 116 -2
137 -18 151 -9 9 -22 13 -28 9z"/>
<path d="M5763 5317 c-1 -14 3 -17 15 -12 9 3 13 3 9 -1 -7 -7 30 -38 48 -39
6 -1 9 -7 7 -14 -1 -7 2 -10 9 -5 9 5 3 15 -17 32 -16 13 -22 21 -14 16 8 -4
5 4 -8 18 -27 30 -47 32 -49 5z"/>
<path d="M2229 5312 c-13 -16 -13 -16 5 -2 18 14 19 13 13 -4 -6 -16 -5 -17 7
-7 8 7 17 8 20 3 7 -12 -20 -36 -32 -28 -5 3 -17 -3 -27 -14 -17 -19 -17 -20
2 -20 10 0 32 13 47 28 21 23 24 31 14 39 -28 21 -36 22 -49 5z m11 -52 c0 -5
-5 -10 -11 -10 -5 0 -7 5 -4 10 3 6 8 10 11 10 2 0 4 -4 4 -10z"/>
<path d="M5735 5321 c-3 -5 -2 -12 3 -15 5 -3 9 1 9 9 0 17 -3 19 -12 6z"/>
<path d="M2191 5270 c-13 -11 -19 -20 -14 -20 6 0 18 9 28 20 23 25 17 25 -14
0z"/>
<path d="M5769 5278 c15 -21 31 -23 31 -6 0 6 -3 8 -7 5 -3 -4 -13 -1 -22 6
-14 11 -14 10 -2 -5z"/>
<path d="M4237 5249 c7 -7 15 -10 18 -7 3 3 -2 9 -12 12 -14 6 -15 5 -6 -5z"/>
<path d="M4298 5253 c7 -3 16 -2 19 1 4 3 -2 6 -13 5 -11 0 -14 -3 -6 -6z"/>
<path d="M4330 5240 c0 -5 4 -10 9 -10 6 0 13 5 16 10 3 6 -1 10 -9 10 -9 0
-16 -4 -16 -10z"/>
<path d="M5866 5242 c-3 -5 1 -9 9 -9 8 0 12 4 9 9 -3 4 -7 8 -9 8 -2 0 -6 -4
-9 -8z"/>
<path d="M3648 5233 c7 -3 16 -2 19 1 4 3 -2 6 -13 5 -11 0 -14 -3 -6 -6z"/>
<path d="M4098 5233 c7 -3 16 -2 19 1 4 3 -2 6 -13 5 -11 0 -14 -3 -6 -6z"/>
<path d="M4298 5233 c7 -3 16 -2 19 1 4 3 -2 6 -13 5 -11 0 -14 -3 -6 -6z"/>
<path d="M3560 5220 c-15 -3 -20 -9 -13 -13 6 -4 21 -3 34 1 29 11 12 21 -21
12z"/>
<path d="M4218 5223 c7 -3 16 -2 19 1 4 3 -2 6 -13 5 -11 0 -14 -3 -6 -6z"/>
<path d="M3630 5216 c0 -2 13 -6 29 -8 17 -2 28 -1 25 4 -5 8 -54 12 -54 4z"/>
<path d="M4288 5213 c7 -3 16 -2 19 1 4 3 -2 6 -13 5 -11 0 -14 -3 -6 -6z"/>
<path d="M3495 5201 c-3 -5 4 -13 16 -16 23 -8 34 -1 24 14 -8 13 -32 14 -40
2z"/>
<path d="M3618 5198 c5 -5 16 -8 23 -6 8 3 3 7 -10 11 -17 4 -21 3 -13 -5z"/>
<path d="M4358 5203 c7 -3 16 -2 19 1 4 3 -2 6 -13 5 -11 0 -14 -3 -6 -6z"/>
<path d="M3575 5190 c3 -5 14 -10 23 -10 15 0 15 2 2 10 -20 13 -33 13 -25 0z"/>
<path d="M2426 5155 c-135 -48 -169 -209 -63 -302 69 -60 145 -67 218 -18 70
46 101 154 65 224 -22 41 -80 88 -123 100 -47 13 -49 13 -97 -4z m105 -78 c44
-29 73 -87 64 -127 -9 -40 -58 -80 -99 -80 -73 0 -148 89 -129 153 10 37 64
77 103 77 15 0 42 -10 61 -23z"/>
<path d="M4724 5136 c11 -9 24 -16 30 -16 12 0 7 5 -24 19 -24 11 -24 11 -6
-3z"/>
<path d="M4721 5104 c0 -11 3 -14 6 -6 3 7 2 16 -1 19 -3 4 -6 -2 -5 -13z"/>
<path d="M4740 5105 c0 -8 92 -65 104 -65 6 0 -9 12 -34 26 -25 14 -46 30 -48
35 -4 9 -22 13 -22 4z"/>
<path d="M5957 5090 c18 -20 24 -21 37 -10 17 14 22 0 6 -16 -13 -13 10 -46
34 -50 13 -2 15 1 6 11 -8 10 -7 16 5 22 13 8 12 12 -10 33 -19 18 -28 21 -37
12 -16 -16 -28 -15 -24 1 1 6 1 8 -2 4 -2 -4 -11 -2 -20 4 -10 7 -7 2 5 -11z
m73 -35 c-7 -8 -9 -20 -5 -27 4 -7 -1 -4 -9 6 -12 14 -13 23 -5 33 6 7 15 10
21 7 5 -3 4 -11 -2 -19z"/>
<path d="M2045 5070 c-3 -6 -17 -8 -30 -6 -19 4 -23 1 -18 -12 3 -9 3 -14 -2
-10 -10 10 -37 -11 -29 -23 7 -12 44 13 44 31 0 13 2 13 9 0 6 -8 7 -19 4 -25
-4 -5 3 -2 14 8 11 9 20 24 20 32 0 18 -3 19 -12 5z"/>
<path d="M3162 5064 c-7 -8 -8 -14 -3 -14 10 0 25 19 20 25 -2 1 -10 -3 -17
-11z"/>
<path d="M3210 5064 c0 -9 -5 -12 -12 -8 -7 4 -8 3 -4 -4 4 -7 2 -12 -5 -12
-7 0 -10 -3 -6 -6 8 -8 41 17 45 34 1 6 -2 12 -8 12 -5 0 -10 -7 -10 -16z"/>
<path d="M3130 5050 c0 -6 7 -13 16 -17 13 -5 13 -7 2 -14 -9 -6 -9 -9 -1 -9
21 0 22 16 2 33 -10 9 -19 12 -19 7z"/>
<path d="M6057 5000 c-3 -11 -3 -20 -1 -20 2 0 8 9 14 20 6 11 7 20 2 20 -6 0
-12 -9 -15 -20z"/>
<path d="M1996 4999 c2 -4 -2 -10 -8 -12 -8 -4 -9 -6 -2 -6 6 -1 17 5 23 12 8
10 7 14 -4 14 -8 0 -12 -4 -9 -8z"/>
<path d="M3830 4968 c-36 -14 -73 -40 -110 -77 l-55 -56 -59 29 c-118 59 -269
33 -365 -63 -22 -22 -52 -63 -66 -92 -24 -46 -29 -50 -52 -44 -15 3 -55 6 -90
6 -70 0 -144 -27 -198 -74 -39 -32 -84 -114 -93 -169 -7 -42 -9 -43 -52 -48
-64 -8 -115 -36 -159 -86 -48 -54 -65 -114 -59 -199 5 -56 3 -65 -13 -70 -10
-3 -38 -28 -62 -55 -79 -88 -88 -194 -26 -318 l34 -69 -56 -22 c-75 -29 -132
-80 -165 -147 -22 -46 -26 -64 -21 -108 10 -99 67 -174 167 -220 30 -14 60
-26 67 -26 14 0 16 -7 42 -135 25 -124 46 -259 61 -390 15 -129 29 -162 72
-173 32 -8 33 -11 48 -86 11 -55 20 -81 34 -88 20 -11 139 -14 155 -3 12 7 26
59 35 125 l7 45 1172 4 1173 3 12 -77 c7 -42 15 -81 18 -87 7 -11 55 -32 67
-29 4 1 31 4 60 7 29 3 55 8 58 10 4 2 12 34 19 71 18 103 17 102 58 105 44 4
44 2 67 225 17 165 36 290 61 396 14 59 20 68 43 74 50 12 118 52 151 89 44
50 60 93 60 157 0 133 -82 238 -216 277 l-42 13 29 45 c90 141 38 339 -104
398 l-42 17 0 86 c0 69 -4 94 -22 127 -47 87 -154 154 -248 154 l-42 0 -12 54
c-39 173 -206 265 -398 219 -18 -4 -26 3 -42 36 -85 165 -260 219 -446 136
l-53 -23 -34 42 c-19 22 -59 54 -89 71 -74 40 -196 46 -279 13z m206 -23 c96
-28 169 -104 159 -165 -21 -139 -106 -1032 -125 -1320 -6 -91 -13 -189 -16
-217 l-5 -53 -93 0 -92 0 -12 198 c-19 288 -71 779 -130 1209 -19 136 -25 208
-19 220 29 55 104 110 177 129 61 17 97 17 156 -1z m501 -91 c26 -9 63 -27 82
-41 41 -31 91 -108 91 -140 0 -13 -33 -108 -74 -211 -126 -317 -291 -841 -362
-1149 l-28 -123 -78 0 -78 0 0 35 c0 139 81 1041 137 1524 l6 53 55 25 c102
45 173 53 249 27z m-981 -9 c27 -8 62 -25 77 -37 31 -25 30 -19 92 -508 40
-317 105 -993 105 -1091 0 -18 -6 -20 -76 -17 l-76 3 -23 92 c-70 275 -225
721 -454 1300 l-20 51 25 51 c67 133 211 198 350 156z m1441 -203 c58 -30 109
-86 127 -140 25 -71 21 -99 -23 -156 -186 -243 -524 -851 -596 -1073 l-27 -83
-100 0 c-90 0 -99 2 -94 18 3 9 17 67 31 127 62 262 243 838 345 1097 78 194
89 215 123 226 51 17 165 9 214 -16z m-1878 -15 c30 -11 37 -21 63 -87 222
-576 366 -988 427 -1222 17 -64 31 -119 31 -122 0 -4 -45 -5 -101 -4 l-101 3
-42 106 c-89 219 -156 339 -439 778 -183 284 -189 295 -183 333 25 158 199
266 345 215z m2197 -262 c45 -18 102 -72 126 -118 16 -32 19 -54 16 -114 l-3
-73 -55 -47 c-261 -223 -470 -482 -588 -725 l-47 -98 -124 0 -123 0 7 28 c12
52 78 208 138 327 137 275 453 790 509 829 25 18 87 14 144 -9z m-2424 -250
c81 -126 187 -293 235 -370 92 -149 219 -400 251 -495 l20 -58 -111 -7 c-89
-6 -113 -4 -120 7 -4 7 -31 54 -58 103 -144 254 -320 487 -492 651 -96 91
-106 104 -112 145 -16 107 54 218 155 247 75 22 71 25 232 -223z m2636 -114
c101 -52 146 -176 107 -292 -22 -64 -67 -115 -108 -123 -47 -9 -117 -56 -155
-103 -61 -77 -118 -213 -143 -343 -7 -36 -14 -67 -16 -69 -1 -2 -16 9 -34 23
-71 60 -183 96 -301 96 -38 0 -68 3 -68 6 0 3 21 47 46 97 112 224 283 439
512 644 52 45 100 83 108 83 8 0 31 -9 52 -19z m-2905 -113 c124 -124 189
-201 292 -352 78 -112 215 -344 215 -362 0 -6 -21 -15 -46 -19 -25 -3 -80 -24
-122 -46 -41 -21 -77 -39 -78 -39 -1 0 -10 26 -19 58 -76 270 -211 439 -368
459 -55 7 -65 16 -99 88 -35 75 -39 165 -9 224 22 42 84 101 106 101 8 0 66
-51 128 -112z m-56 -360 c102 -47 207 -210 257 -398 l26 -95 -54 -55 c-30 -30
-63 -70 -74 -88 l-20 -34 -12 74 c-32 203 -92 358 -167 439 -74 79 -153 100
-221 59 -43 -27 -76 -99 -67 -146 8 -47 59 -101 105 -114 29 -8 41 -17 49 -40
12 -36 5 -37 -48 -10 -91 46 -141 115 -141 195 0 87 48 158 135 200 100 47
153 50 232 13z m3077 18 c103 -31 168 -100 188 -199 20 -99 -28 -187 -127
-233 -27 -13 -51 -22 -53 -20 -1 2 0 16 4 31 5 20 19 32 58 49 63 28 91 75 83
137 -13 98 -117 148 -213 103 -101 -48 -209 -274 -231 -484 -7 -67 -16 -75
-32 -29 -6 16 -25 51 -42 77 -18 26 -32 57 -31 69 4 58 37 186 67 259 55 136
116 209 202 240 49 17 70 17 127 0z m-3235 -136 c26 0 105 -73 135 -124 38
-65 82 -206 105 -336 26 -144 51 -386 51 -485 l0 -76 -67 7 c-38 4 -71 12 -75
17 -3 6 -12 49 -18 96 -43 326 -83 535 -121 637 -18 48 -23 52 -58 58 -75 12
-111 88 -75 157 16 31 69 62 92 54 8 -3 22 -5 31 -5z m3301 -27 c39 -27 49
-45 50 -90 0 -34 -5 -46 -31 -67 -17 -14 -41 -26 -53 -26 -19 0 -28 -12 -49
-57 -44 -101 -93 -359 -117 -622 -6 -63 -13 -118 -16 -122 -3 -5 -34 -9 -70
-9 -48 0 -66 4 -70 15 -9 22 23 456 41 560 20 113 48 201 92 286 64 125 156
179 223 132z m-754 -233 c86 -14 159 -46 214 -96 38 -35 106 -123 98 -127 -1
-2 -559 -1 -1238 1 l-1235 4 60 56 c123 115 231 150 490 161 307 12 1536 13
1611 1z m327 -272 c34 -27 57 -174 41 -270 l-7 -38 -1292 0 -1293 0 -7 94 c-7
95 -3 136 21 194 l13 32 1254 0 c987 0 1257 -3 1270 -12z m35 -389 c2 -25 -1
-57 -7 -71 l-9 -25 -1281 -2 -1281 -2 0 70 0 71 1243 3 c683 1 1262 2 1287 2
l45 0 3 -46z m-2512 -183 c-10 -86 -10 -86 -81 -86 l-63 0 -7 48 c-3 26 -9 57
-12 70 -5 22 -3 22 82 22 l88 0 -7 -54z m2598 7 c-15 -99 -14 -98 -79 -101
-32 -2 -62 1 -66 5 -4 4 -11 38 -15 76 l-7 67 87 0 87 0 -7 -47z"/>
<path d="M4106 4668 c-13 -178 -16 -273 -7 -248 9 27 25 330 18 330 -3 0 -7
-37 -11 -82z"/>
<path d="M4565 4488 c-55 -167 -60 -186 -51 -177 5 5 116 315 116 325 0 2 -3
4 -7 4 -5 0 -30 -69 -58 -152z"/>
<path d="M3590 4724 c2 -31 37 -214 43 -220 10 -10 8 7 -11 118 -10 53 -21
100 -25 104 -4 4 -7 3 -7 -2z"/>
<path d="M4924 4198 c-31 -51 -64 -103 -72 -115 -8 -13 -10 -23 -4 -23 6 0 22
21 37 48 15 26 45 75 68 110 22 34 37 65 34 68 -3 3 -31 -37 -63 -88z"/>
<path d="M3110 4522 c0 -5 16 -45 36 -88 19 -43 44 -99 55 -124 38 -86 48
-105 48 -89 1 17 -16 57 -83 202 -20 43 -36 82 -36 87 0 5 -4 12 -10 15 -5 3
-10 2 -10 -3z"/>
<path d="M5227 3948 c-8 -13 -49 -59 -91 -102 -42 -43 -74 -81 -71 -84 5 -6
186 181 193 199 7 19 -16 8 -31 -13z"/>
<path d="M2710 4264 c0 -11 115 -164 124 -164 10 0 -12 35 -71 113 -42 54 -53
65 -53 51z"/>
<path d="M2491 3933 c6 -13 95 -93 105 -93 11 0 -66 79 -90 92 -10 5 -17 6
-15 1z"/>
<path d="M2560 3493 c0 -5 16 -19 36 -33 61 -41 149 -174 168 -252 3 -16 11
-28 16 -28 13 0 -12 68 -56 151 -44 83 -164 202 -164 162z"/>
<path d="M5337 3273 c-20 -38 -37 -103 -28 -103 10 0 55 120 48 127 -3 3 -12
-8 -20 -24z"/>
<path d="M3650 3068 c0 -5 35 -8 77 -8 42 0 73 3 70 6 -9 9 -147 11 -147 2z"/>
<path d="M4700 2960 c0 -6 70 -10 190 -10 120 0 190 4 190 10 0 6 -70 10 -190
10 -120 0 -190 -4 -190 -10z"/>
<path d="M2900 2418 c0 -5 87 -8 193 -7 123 0 182 4 163 9 -34 11 -356 8 -356
-2z"/>
<path d="M5720 4939 c-33 -13 -78 -57 -97 -93 -24 -46 -20 -118 10 -168 47
-81 138 -109 224 -67 136 66 148 232 24 316 -37 25 -114 30 -161 12z m158 -84
c29 -35 30 -102 1 -139 -46 -59 -127 -74 -176 -32 -24 21 -28 32 -28 74 0 40
5 56 25 77 55 60 135 69 178 20z"/>
<path d="M5135 4900 c-4 -6 -12 -7 -18 -3 -8 5 -8 2 0 -9 7 -8 11 -17 8 -19
-2 -3 6 -11 18 -18 19 -13 21 -12 10 1 -7 8 -10 18 -6 21 3 4 1 7 -6 7 -7 0
-9 5 -6 10 5 8 12 7 23 -2 15 -12 16 -11 3 5 -16 20 -18 20 -26 7z"/>
<path d="M5166 4858 c3 -4 9 -8 15 -8 5 0 9 4 9 8 0 5 -7 9 -15 9 -8 0 -12 -4
-9 -9z"/>
<path d="M6184 4834 c-18 -14 -18 -15 4 -4 12 6 22 13 22 15 0 8 -5 6 -26 -11z"/>
<path d="M1815 4820 c-3 -6 1 -7 9 -4 18 7 21 14 7 14 -6 0 -13 -4 -16 -10z"/>
<path d="M6194 4812 c-17 -13 -14 -31 6 -42 11 -6 19 -14 16 -18 -2 -4 2 -13
10 -20 12 -11 13 -9 11 10 -1 16 3 22 13 20 12 -2 11 1 -2 11 -10 8 -16 16
-13 18 7 8 -31 27 -41 21z m36 -46 c0 -5 -7 -1 -15 10 -8 10 -14 24 -14 29 0
6 6 1 14 -9 8 -11 15 -24 15 -30z"/>
<path d="M2070 4744 c-33 -21 -113 -142 -106 -160 5 -13 218 -158 251 -170 19
-8 45 13 45 35 0 10 -18 27 -40 40 -22 12 -40 25 -40 28 0 3 9 21 21 39 45 73
42 132 -9 177 -29 26 -91 32 -122 11z m82 -71 c24 -22 23 -64 -3 -97 -20 -25
-22 -26 -47 -10 -60 35 -65 41 -52 66 31 59 66 73 102 41z"/>
<path d="M1794 4723 c2 -10 6 -17 10 -16 15 3 16 11 2 22 -12 10 -14 9 -12 -6z"/>
<path d="M5375 4630 c10 -11 20 -20 23 -20 3 0 -3 9 -13 20 -10 11 -20 20 -23
20 -3 0 3 -9 13 -20z"/>
<path d="M5449 4574 c17 -13 25 -14 34 -5 9 9 8 11 -4 6 -10 -4 -20 -2 -24 4
-3 6 -11 11 -18 11 -6 0 -1 -7 12 -16z"/>
<path d="M6356 4555 c-3 -10 -4 -20 -1 -23 3 -3 5 1 5 9 0 11 2 11 10 -1 12
-19 13 -33 1 -26 -5 3 -15 -2 -22 -12 -13 -15 -12 -16 4 -3 9 7 17 9 17 5 0
-5 9 -15 20 -22 20 -12 20 -12 6 23 -27 63 -32 70 -40 50z"/>
<path d="M5440 4557 c0 -2 6 -10 14 -16 11 -9 16 -9 22 1 4 7 4 10 -1 6 -4 -4
-14 -3 -22 3 -7 6 -13 9 -13 6z"/>
<path d="M2513 4508 c1 -7 -4 -12 -12 -10 -12 3 -12 0 -1 -12 7 -9 18 -16 24
-16 6 0 4 5 -4 10 -14 9 -7 15 14 11 5 -1 4 5 -4 13 -15 19 -21 20 -17 4z"/>
<path d="M5520 4516 c0 -2 8 -10 18 -17 15 -13 16 -12 3 4 -13 16 -21 21 -21
13z"/>
<path d="M1665 4439 c-4 -6 -5 -12 -2 -15 2 -3 7 2 10 11 7 17 1 20 -8 4z"/>
<path d="M5565 4409 c-4 -6 -5 -12 -2 -15 2 -3 7 2 10 11 7 17 1 20 -8 4z"/>
<path d="M1591 4374 c0 -11 3 -14 6 -6 3 7 2 16 -1 19 -3 4 -6 -2 -5 -13z"/>
<path d="M1626 4357 c3 -10 9 -15 12 -12 3 3 0 11 -7 18 -10 9 -11 8 -5 -6z"/>
<path d="M5993 4334 c-7 -20 12 -41 22 -23 5 8 4 10 -3 5 -16 -9 -15 7 0 22 9
9 9 12 0 12 -7 0 -15 -7 -19 -16z"/>
<path d="M2399 4313 c-13 -16 -12 -17 4 -4 16 13 21 21 13 21 -2 0 -10 -8 -17
-17z"/>
<path d="M6482 4230 c-7 -11 -8 -20 -3 -20 9 0 24 30 18 36 -1 2 -8 -6 -15
-16z"/>
<path d="M1937 4203 c-13 -12 -7 -23 11 -22 10 0 12 3 4 6 -6 2 -10 9 -6 14 6
10 0 12 -9 2z"/>
<path d="M6537 4067 c-3 -8 -2 -20 3 -26 5 -9 8 -4 8 13 0 29 -3 32 -11 13z"/>
<path d="M6501 4044 c0 -11 3 -14 6 -6 3 7 2 16 -1 19 -3 4 -6 -2 -5 -13z"/>
<path d="M6562 3625 c0 -16 2 -22 5 -12 2 9 2 23 0 30 -3 6 -5 -1 -5 -18z"/>
<path d="M1472 3610 c0 -14 2 -19 5 -12 2 6 2 18 0 25 -3 6 -5 1 -5 -13z"/>
<path d="M1472 3555 c0 -16 2 -22 5 -12 2 9 2 23 0 30 -3 6 -5 -1 -5 -18z"/>
<path d="M6169 3533 c-13 -16 -12 -17 4 -4 16 13 21 21 13 21 -2 0 -10 -8 -17
-17z"/>
<path d="M1714 3532 c-6 -4 -14 -24 -17 -44 -5 -34 -5 -36 12 -20 11 11 13 19
7 24 -8 5 -7 14 2 28 13 22 13 24 -4 12z"/>
<path d="M1725 3510 c-3 -6 1 -7 9 -4 18 7 21 14 7 14 -6 0 -13 -4 -16 -10z"/>
<path d="M6324 3500 c0 -13 4 -16 10 -10 7 7 7 13 0 20 -6 6 -10 3 -10 -10z"/>
<path d="M1720 3455 c0 -8 4 -15 10 -15 5 0 7 7 4 15 -4 8 -8 15 -10 15 -2 0
-4 -7 -4 -15z"/>
<path d="M6290 3460 c0 -5 5 -10 10 -10 6 0 10 5 10 10 0 6 -4 10 -10 10 -5 0
-10 -4 -10 -10z"/>
<path d="M6331 3444 c0 -11 3 -14 6 -6 3 7 2 16 -1 19 -3 4 -6 -2 -5 -13z"/>
<path d="M1700 3430 c0 -6 7 -10 15 -10 8 0 15 2 15 4 0 2 -7 6 -15 10 -8 3
-15 1 -15 -4z"/>
<path d="M6572 3030 c0 -14 2 -19 5 -12 2 6 2 18 0 25 -3 6 -5 1 -5 -13z"/>
<path d="M6546 2927 c3 -10 9 -15 12 -12 3 3 0 11 -7 18 -10 9 -11 8 -5 -6z"/>
<path d="M1650 2465 c-7 -9 -8 -15 -2 -15 5 0 12 7 16 15 3 8 4 15 2 15 -2 0
-9 -7 -16 -15z"/>
<path d="M1689 2440 c-5 -28 -3 -33 14 -36 9 -1 17 2 17 8 0 6 -7 7 -16 4 -12
-4 -14 -1 -9 14 4 11 4 20 1 20 -3 0 -7 -4 -7 -10z"/>
<path d="M5920 2436 c0 -9 30 -14 35 -6 4 6 -3 10 -14 10 -12 0 -21 -2 -21 -4z"/>
<path d="M2167 2323 c-11 -10 13 -32 29 -26 10 4 12 0 8 -11 -4 -11 -2 -15 8
-11 8 3 15 12 15 20 0 8 -3 13 -5 10 -3 -3 -11 0 -19 6 -10 9 -13 8 -13 0 0
-7 -5 -9 -10 -6 -6 4 -8 11 -5 16 7 10 1 12 -8 2z"/>
<path d="M6240 2260 c-6 -11 -8 -20 -6 -20 3 0 10 9 16 20 6 11 8 20 6 20 -3
0 -10 -9 -16 -20z"/>
<path d="M5592 2220 c-67 -41 -91 -123 -51 -174 29 -37 83 -35 154 5 44 25 58
28 74 19 44 -23 9 -90 -56 -106 -16 -4 -23 -13 -23 -29 0 -36 16 -39 68 -13
87 43 119 135 67 192 -33 36 -82 35 -151 -5 -61 -34 -94 -32 -94 6 0 25 51 75
76 75 10 0 14 8 12 23 -4 29 -35 32 -76 7z"/>
<path d="M6243 2212 c2 -12 6 -24 10 -28 3 -4 4 4 2 16 -6 30 -16 40 -12 12z"/>
<path d="M1815 2164 c-14 -11 -15 -15 -5 -14 29 4 40 0 40 -16 0 -14 -3 -14
-15 -4 -13 11 -14 10 -9 -3 9 -25 33 -28 45 -5 8 15 8 19 -1 13 -7 -4 -10 -1
-8 11 2 14 -2 18 -16 16 -11 -2 -15 1 -11 7 8 15 4 13 -20 -5z"/>
<path d="M2746 2161 c-8 -12 67 -71 98 -77 32 -6 40 9 16 31 -20 18 -45 12
-33 -8 4 -7 0 -6 -10 2 -18 15 -23 26 -7 16 15 -10 12 21 -4 34 -10 9 -16 9
-21 1 -5 -8 -10 -8 -20 0 -8 7 -15 7 -19 1z m41 -10 c8 7 13 8 13 1 0 -18 -28
-21 -41 -4 -11 14 -11 15 1 5 10 -9 17 -10 27 -2z m78 -60 c-6 -5 -25 10 -25
20 0 5 6 4 14 -3 8 -7 12 -15 11 -17z"/>
<path d="M2407 2031 c-59 -59 -107 -114 -107 -122 0 -8 33 -48 74 -88 64 -64
77 -73 90 -61 25 20 20 32 -34 85 -27 27 -50 54 -50 60 0 6 14 21 31 34 l31
23 45 -47 c43 -45 45 -46 64 -29 19 17 19 18 -26 64 -25 25 -45 50 -45 56 0 6
11 21 25 34 l25 24 53 -52 c57 -56 68 -60 87 -36 12 13 3 26 -61 90 -40 41
-78 74 -84 74 -6 0 -59 -49 -118 -109z"/>
<path d="M1877 2094 c-3 -3 -3 -13 1 -22 5 -15 4 -16 -14 -2 -18 14 -18 14 -5
-2 16 -21 30 -15 28 12 -1 22 -1 22 -10 14z"/>
<path d="M1910 2060 c8 -5 20 -10 25 -10 6 0 3 5 -5 10 -8 5 -19 10 -25 10 -5
0 -3 -5 5 -10z"/>
<path d="M1885 2030 c3 -5 8 -10 11 -10 2 0 4 5 4 10 0 6 -5 10 -11 10 -5 0
-7 -4 -4 -10z"/>
<path d="M5062 2014 c-12 -8 -20 -20 -17 -25 4 -5 2 -9 -3 -9 -5 0 -9 -7 -9
-16 0 -15 1 -15 12 0 7 8 14 13 17 10 4 -3 9 0 14 7 4 8 3 10 -4 5 -7 -4 -12
-1 -12 8 0 18 16 21 26 5 4 -7 10 -7 16 -1 10 10 3 32 -10 32 -4 0 -18 -7 -30
-16z"/>
<path d="M2960 1984 c0 -2 9 -8 20 -14 15 -8 18 -8 14 3 -4 11 -34 21 -34 11z"/>
<path d="M3013 1968 c4 -24 22 -35 31 -19 4 6 13 8 21 4 8 -3 15 -1 15 5 0 11
-25 10 -36 -1 -12 -11 -24 -8 -21 6 1 6 9 15 17 19 11 5 9 7 -7 7 -18 1 -22
-4 -20 -21z"/>
<path d="M6055 1960 c-4 -6 -10 -8 -15 -5 -4 3 -24 -15 -44 -40 -35 -42 -28
-53 13 -21 14 11 47 18 36 8 -4 -4 -12 -7 -17 -7 -6 0 -13 -7 -15 -15 -4 -13
-3 -13 6 0 6 8 11 11 11 6 0 -5 11 1 25 14 18 17 22 27 15 40 -5 10 -6 20 -3
24 3 3 4 6 0 6 -3 0 -9 -5 -12 -10z m-1 -21 c-2 -4 2 -9 8 -12 7 -2 0 -4 -17
-4 -16 0 -24 2 -17 4 6 3 10 8 8 12 -3 4 1 8 9 8 8 0 12 -4 9 -8z"/>
<path d="M6083 1955 c0 -8 4 -12 9 -9 5 3 6 10 3 15 -9 13 -12 11 -12 -6z"/>
<path d="M3108 1937 c7 -8 8 -18 4 -22 -4 -5 -1 -5 6 -1 17 10 15 23 -4 30
-13 5 -14 4 -6 -7z"/>
<path d="M3055 1930 c-3 -6 1 -7 9 -4 18 7 21 14 7 14 -6 0 -13 -4 -16 -10z"/>
<path d="M5278 1910 c-98 -52 -118 -178 -40 -259 67 -71 160 -78 228 -19 46
40 64 77 64 129 0 124 -140 208 -252 149z m148 -71 c57 -53 53 -137 -7 -173
-41 -24 -87 -14 -126 27 -39 39 -49 78 -33 118 25 60 115 76 166 28z"/>
<path d="M2029 1883 c-13 -16 -12 -17 4 -4 9 7 17 15 17 17 0 8 -8 3 -21 -13z"/>
<path d="M2799 1845 c-54 -30 -56 -92 -5 -160 40 -53 49 -75 35 -91 -26 -32
-77 -7 -108 54 -14 26 -49 29 -58 6 -9 -24 26 -83 66 -110 51 -34 104 -32 142
5 42 42 39 81 -11 155 -32 47 -38 62 -29 77 18 35 59 22 90 -27 36 -59 87 -37
55 24 -33 64 -123 98 -177 67z"/>
<path d="M2069 1833 c-12 -14 -12 -16 0 -8 11 6 13 4 7 -10 -6 -16 -4 -16 10
-4 10 8 12 15 5 17 -6 2 -9 8 -5 13 9 15 -3 10 -17 -8z"/>
<path d="M2103 1795 c0 -8 4 -12 9 -9 5 3 6 10 3 15 -9 13 -12 11 -12 -6z"/>
<path d="M4591 1795 c-22 -8 -29 -14 -19 -17 8 -3 25 3 39 13 27 21 27 21 -20
4z"/>
<path d="M4646 1798 c3 -5 10 -6 15 -3 13 9 11 12 -6 12 -8 0 -12 -4 -9 -9z"/>
<path d="M4625 1781 c-9 -15 13 -23 32 -11 15 9 14 10 -6 4 -16 -4 -21 -3 -17
5 4 6 5 11 2 11 -3 0 -7 -4 -11 -9z"/>
<path d="M4533 1765 c0 -7 8 -10 19 -7 10 2 18 6 18 7 0 1 -8 5 -18 7 -11 3
-19 0 -19 -7z"/>
<path d="M4590 1760 c-12 -7 -10 -9 7 -7 12 0 19 5 17 9 -6 10 -6 10 -24 -2z"/>
<path d="M3898 1703 c7 -3 16 -2 19 1 4 3 -2 6 -13 5 -11 0 -14 -3 -6 -6z"/>
<path d="M5784 1688 c-12 -14 -13 -18 -3 -10 9 6 18 10 21 7 2 -3 5 2 5 10 0
19 0 19 -23 -7z"/>
<path d="M5825 1700 c-3 -5 -1 -10 4 -10 6 0 11 5 11 10 0 6 -2 10 -4 10 -3 0
-8 -4 -11 -10z"/>
<path d="M3968 1693 c6 -2 18 -2 25 0 6 3 1 5 -13 5 -14 0 -19 -2 -12 -5z"/>
<path d="M4045 1684 l40 -14 -57 5 c-36 3 -58 1 -58 -5 0 -6 26 -10 60 -10 33
0 60 4 60 8 0 17 -26 32 -54 31 -30 -1 -30 -1 9 -15z"/>
<path d="M3137 1683 c-18 -17 -4 -41 33 -58 22 -10 40 -22 40 -28 0 -5 -23
-61 -51 -125 -49 -110 -51 -116 -33 -129 10 -7 25 -12 33 -11 8 2 36 55 63
118 27 63 51 117 54 119 3 3 25 -2 49 -11 38 -14 45 -15 55 -2 22 25 3 40
-107 87 -110 48 -124 52 -136 40z"/>
<path d="M4838 1649 c-38 -18 -68 -38 -68 -44 0 -25 130 -285 142 -285 25 0
115 48 151 80 71 62 70 156 -2 233 -35 37 -43 41 -97 44 -50 3 -69 -1 -126
-28z m172 -57 c35 -35 47 -90 28 -128 -7 -16 -32 -39 -56 -52 l-42 -23 -45 92
c-25 51 -45 98 -45 104 0 15 47 33 93 34 30 1 45 -5 67 -27z"/>
<path d="M5811 1666 c-6 -7 -7 -17 -3 -21 4 -5 -1 -5 -11 -2 -12 5 -16 3 -11
-4 4 -7 1 -10 -7 -7 -8 3 -13 11 -11 17 1 7 -2 10 -8 6 -7 -4 -8 -11 -1 -18 5
-7 9 -16 9 -20 0 -5 4 -12 8 -15 4 -4 4 -2 0 5 -3 7 2 14 13 18 25 8 55 42 43
49 -5 3 -15 0 -21 -8z"/>
<path d="M2294 1624 c-18 -14 -18 -15 4 -4 12 6 22 13 22 15 0 8 -5 6 -26 -11z"/>
<path d="M5704 1619 c-19 -22 -19 -22 4 -8 12 8 22 17 22 21 0 12 -6 9 -26
-13z"/>
<path d="M4467 1527 c-13 -9 -25 -57 -46 -177 -16 -91 -27 -168 -25 -172 8
-12 40 -9 52 5 6 6 12 25 14 42 3 28 7 30 76 46 l72 16 18 -29 c13 -23 23 -28
47 -26 19 2 30 8 29 18 -2 22 -194 290 -208 290 -7 0 -20 -6 -29 -13z m71
-127 c17 -27 32 -54 32 -59 0 -8 -47 -21 -79 -21 -15 0 -16 7 -7 65 5 36 12
65 15 65 3 0 21 -23 39 -50z"/>
<path d="M3575 1511 c-86 -44 -121 -162 -73 -246 27 -47 94 -85 148 -85 120 0
203 137 152 252 -37 84 -144 121 -227 79z m146 -70 c23 -23 29 -38 29 -71 0
-111 -101 -171 -171 -101 -25 25 -29 37 -29 81 0 46 4 56 34 86 45 45 95 47
137 5z"/>
<path d="M4001 1477 c-7 -10 -9 -60 -3 -168 l7 -154 30 0 30 0 3 68 3 67 64 0
c63 0 65 1 65 25 0 24 -2 25 -70 25 l-70 0 0 45 0 45 59 0 c75 0 91 6 91 36 0
24 -1 24 -99 24 -70 0 -102 -4 -110 -13z"/>
<path d="M2539 1413 c-13 -16 -12 -17 4 -4 9 7 17 15 17 17 0 8 -8 3 -21 -13z"/>
<path d="M5245 1299 c-16 -10 -24 -19 -17 -19 6 0 12 -6 12 -14 0 -23 15 -27
39 -10 21 15 21 17 6 34 -13 14 -13 19 -3 23 7 3 9 5 3 5 -5 1 -23 -8 -40 -19z
m37 -34 c-3 -5 -7 -4 -10 3 -2 7 -11 12 -20 12 -14 0 -14 2 -3 9 16 10 42 -8
33 -24z"/>
<path d="M2820 1270 c-9 -6 -10 -10 -3 -10 6 0 15 5 18 10 8 12 4 12 -15 0z"/>
<path d="M5190 1270 c-9 -6 -10 -10 -3 -10 6 0 15 5 18 10 8 12 4 12 -15 0z"/>
<path d="M2890 1220 c-9 -6 -10 -10 -3 -10 6 0 15 5 18 10 8 12 4 12 -15 0z"/>
<path d="M4900 1144 c-33 -13 -33 -14 -5 -8 17 3 40 8 51 10 14 4 23 0 28 -11
3 -9 2 -13 -3 -10 -5 3 -12 1 -16 -5 -3 -5 -12 -10 -18 -10 -7 0 -3 7 7 15 22
16 10 20 -14 5 -10 -6 -12 -12 -4 -20 12 -12 74 6 74 22 0 6 6 8 13 5 8 -3 14
0 14 7 0 6 -8 12 -18 12 -10 0 -15 -4 -13 -8 3 -4 0 -8 -5 -8 -6 0 -11 5 -11
10 0 14 -38 11 -80 -6z"/>
<path d="M3365 1060 c-3 -5 -18 -10 -33 -10 l-27 -1 25 -14 c14 -8 35 -14 48
-15 13 0 33 -5 44 -11 15 -8 23 -8 32 1 8 8 6 9 -9 4 -17 -7 -18 -5 -8 7 10
13 7 14 -24 11 -25 -3 -34 -1 -29 7 4 6 2 11 -5 11 -7 0 -10 3 -7 6 4 3 16 1
27 -6 15 -8 26 -8 39 0 15 9 14 10 -5 5 -14 -4 -23 -2 -23 4 0 14 -37 14 -45
1z"/>
<path d="M4550 1042 c0 -12 49 -37 57 -29 3 4 0 7 -8 7 -12 0 -11 2 1 11 12 8
10 9 -7 4 -14 -4 -23 -2 -23 4 0 6 -4 11 -10 11 -5 0 -10 -4 -10 -8z"/>
<path d="M4483 1033 c-18 -2 -33 -9 -33 -15 0 -6 12 -8 31 -4 17 3 35 6 40 6
5 0 9 5 9 10 0 6 -3 9 -7 8 -5 0 -23 -3 -40 -5z"/>
<path d="M4370 1016 c0 -10 28 -13 41 -5 10 6 7 9 -13 9 -16 0 -28 -2 -28 -4z"/>
<path d="M3488 1003 c7 -3 16 -2 19 1 4 3 -2 6 -13 5 -11 0 -14 -3 -6 -6z"/>
<path d="M4490 995 c0 -8 6 -15 13 -15 8 0 14 7 14 15 0 8 -6 15 -14 15 -7 0
-13 -7 -13 -15z"/>
<path d="M4220 989 c0 -5 5 -7 10 -4 6 3 10 8 10 11 0 2 -4 4 -10 4 -5 0 -10
-5 -10 -11z"/>
<path d="M4458 993 c7 -3 16 -2 19 1 4 3 -2 6 -13 5 -11 0 -14 -3 -6 -6z"/>
<path d="M4023 943 c15 -2 39 -2 55 0 15 2 2 4 -28 4 -30 0 -43 -2 -27 -4z"/>
<path d="M746 3666 c-58 -22 -104 -72 -122 -133 -14 -48 -14 -58 0 -107 49
-168 281 -192 363 -37 82 157 -75 338 -241 277z"/>
<path d="M7157 3665 c-148 -52 -172 -262 -40 -345 58 -37 106 -44 167 -26 66
20 113 68 132 133 14 48 14 58 0 106 -33 113 -148 172 -259 132z"/>
<path d="M150 3528 c-46 -49 -8 -138 60 -138 69 0 107 91 57 138 -31 30 -89
30 -117 0z"/>
<path d="M7777 3538 c-27 -22 -39 -66 -25 -96 27 -56 94 -66 138 -22 46 46 8
130 -59 130 -20 0 -45 -6 -54 -12z"/>
</g>
</svg>
